<svg width="61" height="56" viewBox="0 0 61 56" fill="none" xmlns="http://www.w3.org/2000/svg">
<path d="M22.4153 23.5199H22.1176V18.9794C22.1176 18.1706 21.1523 17.7678 20.5924 18.3373L19.401 19.548C19.0522 19.9028 19.0522 20.4777 19.401 20.8322C19.6525 21.0876 20.0164 21.1587 20.3307 21.0467V23.5199H20.0328C19.5395 23.5199 19.1394 23.9263 19.1394 24.428C19.1394 24.9297 19.5394 25.3361 20.0328 25.3361H22.4153C22.9088 25.3361 23.3088 24.9297 23.3088 24.428C23.3088 23.9263 22.9088 23.5199 22.4153 23.5199V23.5199Z" fill="#FF5C00"/>
<path d="M27.009 18.0713C25.5311 18.0713 24.3289 19.2933 24.3289 20.7955V22.6117C24.3289 24.1137 25.5311 25.3359 27.009 25.3359C28.4871 25.3359 29.6895 24.1137 29.6895 22.6117V20.7955C29.6895 19.2932 28.4871 18.0713 27.009 18.0713V18.0713ZM27.9026 22.6118C27.9026 23.1126 27.5018 23.5199 27.009 23.5199C26.5165 23.5199 26.1157 23.1126 26.1157 22.6118V20.7956C26.1157 20.2948 26.5165 19.8875 27.009 19.8875C27.5018 19.8875 27.9026 20.2948 27.9026 20.7956V22.6118Z" fill="#FF5C00"/>
<path d="M33.3923 18.0713C31.9144 18.0713 30.7122 19.2933 30.7122 20.7955V22.6117C30.7122 24.1137 31.9144 25.3359 33.3923 25.3359C34.8704 25.3359 36.0728 24.1137 36.0728 22.6117V20.7955C36.0728 19.2932 34.8705 18.0713 33.3923 18.0713V18.0713ZM34.2859 22.6118C34.2859 23.1126 33.8851 23.5199 33.3923 23.5199C32.8998 23.5199 32.499 23.1126 32.499 22.6118V20.7956C32.499 20.2948 32.8998 19.8875 33.3923 19.8875C33.8851 19.8875 34.2859 20.2948 34.2859 20.7956V22.6118Z" fill="#FF5C00"/>
<path d="M37.9889 19.8864C38.4823 19.8864 38.8824 19.4798 38.8824 18.9783C38.8824 18.4766 38.4823 18.0702 37.9889 18.0702C37.4954 18.0702 37.0955 18.4766 37.0955 18.9783C37.0955 19.4797 37.4954 19.8864 37.9889 19.8864Z" fill="#FF5C00"/>
<path d="M41.4008 18.1845C40.9693 17.941 40.4255 18.0989 40.1859 18.5374L37.208 23.9856C36.9684 24.424 37.1239 24.9769 37.5552 25.2204C37.9842 25.4625 38.5293 25.3077 38.7702 24.8674L41.748 19.4194C41.9875 18.981 41.8322 18.4282 41.4008 18.1845V18.1845Z" fill="#FF5C00"/>
<path d="M40.9672 23.5187C40.4737 23.5187 40.0736 23.9252 40.0736 24.4266C40.0736 24.9283 40.4736 25.3347 40.9672 25.3347C41.4605 25.3347 41.8606 24.9283 41.8606 24.4266C41.8606 23.9252 41.4605 23.5187 40.9672 23.5187Z" fill="#FF5C00"/>
<path d="M0.893555 30.7248C1.38704 30.7248 1.78711 30.3183 1.78711 29.8166C1.78711 29.3158 2.1879 28.9084 2.68066 28.9084H58.3193C58.8121 28.9084 59.2129 29.3158 59.2129 29.8166C59.2129 30.3183 59.6128 30.7248 60.1064 30.7248C60.6 30.7248 61 30.3183 61 29.8166C61 28.3144 59.7974 27.092 58.3193 27.092H57.4613C57.3158 26.6908 57.0754 26.3267 56.7548 26.0367L53.7328 23.3031L55.4955 19.6024C56.1705 18.1855 55.4747 16.4891 54.017 15.9742L50.1959 14.6242L50.431 10.5194C50.5211 8.95013 49.2419 7.65128 47.699 7.74259L43.6604 7.98163L42.3322 4.09791C41.8248 2.61342 40.1544 1.91047 38.7625 2.59502L35.1213 4.38672L32.432 1.31518C31.4024 0.139478 29.5958 0.141779 28.5683 1.31518L25.8789 4.38672L22.2376 2.59502C20.8489 1.91156 19.1765 2.61052 18.6679 4.09767L17.3397 7.98163L13.3012 7.74259C11.761 7.6508 10.4791 8.94771 10.5691 10.5194L10.8043 14.6242L6.98331 15.9742C5.52241 16.49 4.83115 18.1881 5.50465 19.6024L7.26734 23.3031L4.24534 26.0367C3.92473 26.3268 3.6843 26.6908 3.53883 27.092H2.68066C1.20249 27.092 0 28.3144 0 29.8166C0 30.3183 0.400074 30.7248 0.893555 30.7248V30.7248ZM8.95985 24.2037C9.25842 23.9338 9.3442 23.4951 9.17013 23.1295L7.11305 18.811C6.90456 18.3733 7.11698 17.8502 7.56984 17.69L12.0288 16.1145C12.4062 15.9812 12.6507 15.6093 12.6275 15.2039L12.3531 10.4138C12.3253 9.92978 12.7166 9.52824 13.1972 9.55584L17.9099 9.83472C18.3098 9.85834 18.6747 9.60985 18.806 9.22635L20.356 4.69418C20.5126 4.2362 21.0263 4.01666 21.4589 4.2299L25.7079 6.32071C26.0674 6.49738 26.4991 6.41032 26.7648 6.10698L29.9031 2.5226C30.2213 2.15932 30.7782 2.15859 31.097 2.5226L34.2354 6.10698C34.5011 6.41032 34.9329 6.4975 35.2922 6.32071L39.5413 4.22978C39.973 4.01762 40.487 4.23463 40.6442 4.69418L42.1942 9.22635C42.3255 9.60985 42.6915 9.85846 43.0902 9.83472L47.8032 9.55584C48.2823 9.52824 48.675 9.92833 48.6471 10.4138L48.3728 15.2039C48.3495 15.6093 48.5939 15.9812 48.9713 16.1145L53.4305 17.69C53.8822 17.8497 54.0964 18.3722 53.8872 18.8109L51.8301 23.1295C51.656 23.4952 51.7419 23.9338 52.0404 24.2037L55.2336 27.0922H14.4138C14.8724 18.5519 21.8425 11.6249 30.5 11.6249H30.506C38.0607 11.6249 44.6861 17.0754 46.2587 24.5844C46.3457 25.0009 46.7138 25.3036 47.132 25.3036C47.1952 25.3036 47.2571 25.2975 47.3191 25.283C47.8004 25.179 48.109 24.6957 48.0065 24.2065C48.0065 24.2053 48.0065 24.2053 48.0065 24.2039C46.2802 15.9672 39.0713 9.80833 30.5001 9.80833C20.9459 9.80833 13.0877 17.4646 12.6235 27.092H5.76676L8.95985 24.2037Z" fill="#FF5C00"/>
<path d="M60.1064 36.1741C59.6128 36.1741 59.2129 36.5806 59.2129 37.0823C59.2129 37.5831 58.8121 37.9905 58.3193 37.9905H2.68066C2.1879 37.9905 1.78711 37.5831 1.78711 37.0823C1.78711 36.5806 1.38704 36.1741 0.893555 36.1741C0.400074 36.1741 0 36.5806 0 37.0823C0 38.5846 1.20249 39.8069 2.68066 39.8069H9.54995L10.8201 41.0979L10.5691 45.481C10.4795 47.0465 11.7539 48.3492 13.3012 48.2579L17.3397 48.0189L18.6679 51.9026C19.1757 53.3875 20.8462 54.0903 22.2376 53.4055L25.8788 51.6138L28.5683 54.6853C29.5964 55.8596 31.4043 55.8587 32.432 54.6853L35.1213 51.6138L38.7624 53.4055C40.1541 54.0904 41.8247 53.3871 42.3321 51.9028L43.6603 48.019L47.6988 48.258C49.2506 48.3497 50.5202 47.0421 50.4309 45.4811L50.1799 41.098L51.4502 39.807H58.3193C59.7974 39.807 61 38.5847 61 37.0824C61 36.5806 60.6 36.1741 60.1064 36.1741V36.1741ZM48.3725 40.7966L48.6469 45.5866C48.6748 46.0706 48.2834 46.4728 47.8028 46.4447L43.0899 46.1658C42.6913 46.1419 42.3253 46.3907 42.194 46.7742L40.644 51.3065C40.4866 51.7661 39.9723 51.983 39.541 51.7706L35.292 49.6798C34.9322 49.5029 34.5009 49.5902 34.2352 49.8935L31.0968 53.4779C30.7786 53.8412 30.2217 53.8418 29.903 53.4779L26.7646 49.8935C26.4989 49.5902 26.0674 49.5031 25.7077 49.6798L21.4588 51.7707C21.0255 51.9837 20.5123 51.7641 20.3559 51.3063L18.8059 46.7742C18.6747 46.3907 18.3094 46.1411 17.9099 46.1658L13.1972 46.4447C12.7152 46.4715 12.3253 46.0701 12.3531 45.5866L12.6275 40.7966C12.6424 40.5378 12.5477 40.2849 12.3673 40.1017L12.0773 39.8069H41.6508C38.6605 42.731 34.6934 44.3757 30.4999 44.3757C26.7863 44.3757 23.2943 43.1212 20.4015 40.7502C20.0224 40.4373 19.4603 40.4913 19.1446 40.8859C18.836 41.2758 18.8956 41.8484 19.2792 42.1634C19.2804 42.1634 19.2804 42.1646 19.2804 42.1646C22.4043 44.7271 26.326 46.1922 30.4975 46.1922L30.4999 46.1861L30.5023 46.1922C35.7741 46.1922 40.7056 43.8461 44.1054 39.807H48.9225L48.6325 40.1018C48.4523 40.2849 48.3577 40.5378 48.3725 40.7966Z" fill="#FF5C00"/>
<path d="M5.22498 31.6333H5.88062C6.37422 31.6333 6.77417 31.2269 6.77417 30.7251C6.77417 30.2236 6.37433 29.8172 5.88062 29.8172H5.22498C3.2544 29.8172 1.65112 31.4466 1.65112 33.4494C1.65112 35.4524 3.2544 37.0818 5.22498 37.0818C6.17954 37.0818 7.07679 36.704 7.75184 36.0179C8.42689 35.3318 8.79873 34.4198 8.79873 33.4494C8.79873 32.9479 8.39901 32.5414 7.90529 32.5414H6.35742C5.86394 32.5414 5.46386 32.9478 5.46386 33.4494C5.46386 33.9512 5.86382 34.3576 6.35742 34.3576H6.77334C6.69613 34.4934 6.6007 34.6196 6.48859 34.7337C6.15083 35.0767 5.70214 35.2657 5.22498 35.2657C4.23957 35.2657 3.43811 34.4508 3.43811 33.4494C3.43811 32.4482 4.23957 31.6333 5.22498 31.6333V31.6333Z" fill="#FF5C00"/>
<path d="M10.4045 29.8172C9.91118 29.8172 9.51111 30.2236 9.51111 30.7251V34.0125C9.51111 35.7051 10.8736 37.0818 12.5488 37.0818C14.2238 37.0818 15.5864 35.7051 15.5864 34.0125V30.7251C15.5864 30.2237 15.1865 29.8172 14.6931 29.8172C14.1996 29.8172 13.7996 30.2236 13.7996 30.7251V34.0125C13.7996 34.7034 13.2384 35.2657 12.5487 35.2657C11.859 35.2657 11.2979 34.7034 11.2979 34.0125V30.7251C11.2981 30.2236 10.8979 29.8172 10.4045 29.8172V29.8172Z" fill="#FF5C00"/>
<path d="M18.9238 29.8172C18.5515 29.8172 18.218 30.0518 18.0873 30.4062L16.077 35.8548C15.9037 36.3245 16.138 36.8479 16.5998 37.0238C17.062 37.1995 17.5768 36.9621 17.7503 36.4925L17.8678 36.1736H19.9798L20.0976 36.4925C20.2716 36.9646 20.7888 37.1992 21.2477 37.0238C21.7095 36.8479 21.9436 36.3245 21.7704 35.8548L19.7603 30.4062C19.6295 30.0518 19.2961 29.8172 18.9238 29.8172V29.8172ZM18.5377 34.3576L18.9237 33.3113L19.3096 34.3576H18.5377Z" fill="#FF5C00"/>
<path d="M28.1417 32.5415C28.1417 31.0395 26.946 29.8173 25.4764 29.8173H23.734C23.2407 29.8173 22.8406 30.2237 22.8406 30.7252V36.1738C22.8406 36.6755 23.2405 37.0819 23.734 37.0819C24.2274 37.0819 24.6276 36.6755 24.6276 36.1738V35.2658H25.104L26.6139 36.8132C26.7884 36.9923 27.0184 37.0819 27.2483 37.0819C27.4756 37.0819 27.7031 36.9941 27.8774 36.8187C28.2276 36.4656 28.23 35.8905 27.8827 35.5345L27.0822 34.7141C27.7253 34.2161 28.1417 33.4277 28.1417 32.5415V32.5415ZM25.4764 33.4494H24.6276V31.6333H25.4764C25.9606 31.6333 26.3547 32.0405 26.3547 32.5414C26.3547 33.0421 25.9608 33.4494 25.4764 33.4494Z" fill="#FF5C00"/>
<path d="M31.9379 29.8172C31.5656 29.8172 31.2321 30.0518 31.1014 30.4062L29.0911 35.8548C28.9177 36.3245 29.152 36.8479 29.6139 37.0238C30.0761 37.1995 30.5909 36.9621 30.7644 36.4925L30.8819 36.1736H32.9941L33.1118 36.4925C33.2462 36.8571 33.5867 37.0818 33.9483 37.0818C34.0525 37.0818 34.1585 37.0633 34.2618 37.0238C34.7236 36.8479 34.9577 36.3245 34.7845 35.8548L32.7744 30.4062C32.6436 30.0518 32.3102 29.8172 31.9379 29.8172V29.8172ZM31.5518 34.3576L31.9378 33.3113L32.3237 34.3576H31.5518Z" fill="#FF5C00"/>
<path d="M39.6668 30.7251V33.3998L37.3495 30.1883C37.121 29.8719 36.7183 29.7401 36.3511 29.8624C35.9838 29.9845 35.7356 30.3329 35.7356 30.7253V36.1738C35.7356 36.6755 36.1356 37.0819 36.629 37.0819C37.1224 37.0819 37.5226 36.6755 37.5226 36.1738V33.4992L39.8398 36.7108C40.3463 37.413 41.4539 37.0554 41.4539 36.1736V30.725C41.4538 30.2235 41.0538 29.817 40.5603 29.817C40.0667 29.8171 39.6668 30.2235 39.6668 30.7251V30.7251Z" fill="#FF5C00"/>
<path d="M44.8815 37.0818C45.375 37.0818 45.7749 36.6754 45.7749 36.1737V31.6333H46.9067C47.4001 31.6333 47.8002 31.2269 47.8002 30.7251C47.8002 30.2236 47.4002 29.8172 46.9067 29.8172H42.8564C42.363 29.8172 41.9629 30.2236 41.9629 30.7251C41.9629 31.2269 42.3628 31.6333 42.8564 31.6333H43.9882V36.1737C43.9882 36.6754 44.3881 37.0818 44.8815 37.0818V37.0818Z" fill="#FF5C00"/>
<path d="M51.9581 31.6333C52.4516 31.6333 52.8516 31.2269 52.8516 30.7251C52.8516 30.2236 52.4517 29.8172 51.9581 29.8172H49.2183C48.7249 29.8172 48.3248 30.2236 48.3248 30.7251V36.1737C48.3248 36.6754 48.7248 37.0818 49.2183 37.0818H51.9581C52.4516 37.0818 52.8516 36.6754 52.8516 36.1737C52.8516 35.672 52.4516 35.2657 51.9581 35.2657H50.1117V34.3576H51.2434C51.7369 34.3576 52.1367 33.9512 52.1367 33.4494C52.1367 32.9478 51.7369 32.5414 51.2434 32.5414H50.1117V31.6333H51.9581Z" fill="#FF5C00"/>
<path d="M57.5022 31.6333C57.9957 31.6333 58.3956 31.2269 58.3956 30.7251C58.3956 30.2236 57.9958 29.8172 57.5022 29.8172H54.7623C54.269 29.8172 53.8689 30.2236 53.8689 30.7251V36.1737C53.8689 36.6754 54.2689 37.0818 54.7623 37.0818H57.5022C57.9957 37.0818 58.3956 36.6754 58.3956 36.1737C58.3956 35.672 57.9957 35.2657 57.5022 35.2657H55.6558V34.3576H56.7875C57.281 34.3576 57.6808 33.9512 57.6808 33.4494C57.6808 32.9478 57.281 32.5414 56.7875 32.5414H55.6558V31.6333H57.5022Z" fill="#FF5C00"/>
</svg>
