<svg width="30" height="30" viewBox="0 0 30 30" fill="none" xmlns="http://www.w3.org/2000/svg">
<path d="M30 15C30 14.8178 29.9967 14.6362 29.9903 14.4556C29.7037 6.42352 23.1021 0 15 0C6.89795 0 0.29625 6.42352 0.00972656 14.4556C0.00328125 14.6362 0 14.8178 0 15C0 23.2843 7.7052 29.4557 15 29.4557C22.427 29.4557 30 23.2843 30 15Z" fill="#FF5876"/>
<path d="M15 28.9112C6.89807 28.9112 0.297539 22.4875 0.0108984 14.4556C0.00439453 14.6364 0 14.8176 0 15C0 23.2842 6.71572 30 15 30C23.2843 30 30 23.2842 30 15C30 14.8176 29.9956 14.6364 29.9892 14.4556C29.7025 22.4876 23.1019 28.9112 15 28.9112Z" fill="#E6485D"/>
<path d="M27.505 14.4557C27.22 7.79551 21.7304 2.4834 15 2.4834C8.26964 2.4834 2.77999 7.79551 2.49499 14.4557C2.48725 14.6362 2.49493 26.7206 15 26.7206C27.5051 26.7206 27.5128 14.6362 27.505 14.4557Z" fill="#E4EEF9"/>
<path d="M15.0001 26.4279C8.26976 26.4279 2.781 21.1157 2.49588 14.4556C2.48814 14.6362 2.4834 14.8174 2.4834 14.9999C2.4834 21.9127 8.0873 27.5166 15.0001 27.5166C21.9128 27.5166 27.5168 21.9127 27.5168 15C27.5168 14.8175 27.512 14.6362 27.5043 14.4556C27.2192 21.1157 21.7304 26.4279 15.0001 26.4279Z" fill="#D5E0F2"/>
<path d="M19.5466 10.6085C19.1898 10.2567 18.6154 10.2606 18.2636 10.6173L16.1346 12.7757L16.3486 13.8033L17.343 14.1346L19.5555 11.8915C19.9072 11.5348 19.9033 10.9604 19.5466 10.6085Z" fill="#405B6C"/>
<path d="M13.7157 12.8583L8.88742 8.55563C8.5133 8.22223 7.93985 8.25528 7.60651 8.6294C7.27317 9.00346 7.30616 9.57698 7.68028 9.91032L12.6036 14.2977L13.6295 13.9555L13.7157 12.8583Z" fill="#405B6C"/>
<path d="M21.424 20.8499C21.321 20.8499 21.2175 20.815 21.1325 20.7436L15.386 15.9167C15.1942 15.7556 15.1692 15.4694 15.3304 15.2777C15.4915 15.0858 15.7776 15.0609 15.9695 15.222L21.716 20.0489C21.9078 20.2101 21.9327 20.4962 21.7716 20.688C21.6819 20.7948 21.5534 20.8499 21.424 20.8499Z" fill="#86DCFF"/>
<path d="M12.6036 14.2978L13.4509 15.0529L14.539 14.6831L14.48 13.5394L13.7157 12.8584C13.184 13.1779 12.7815 13.6898 12.6036 14.2978Z" fill="#2D4456"/>
<path d="M16.1345 12.7759L15.4142 13.5062V14.9397H16.5489L17.343 14.1347C17.1248 13.5443 16.6896 13.0596 16.1345 12.7759Z" fill="#2D4456"/>
<path d="M16.4522 14.4557C16.2318 13.868 15.6648 13.4497 15.0001 13.4497C14.3354 13.4497 13.7684 13.868 13.548 14.4557C13.4845 14.6251 13.5438 16.0062 15.0001 16.0062C16.4564 16.0062 16.5157 14.6251 16.4522 14.4557Z" fill="#FF5876"/>
<path d="M14.9999 15.4616C14.3352 15.4616 13.7684 15.0433 13.548 14.4556C13.4844 14.625 13.4495 14.8083 13.4495 14.9999C13.4495 15.8562 14.1436 16.5503 14.9999 16.5503C15.8561 16.5503 16.5502 15.8561 16.5502 14.9999C16.5502 14.8083 16.5153 14.625 16.4517 14.4556C16.2314 15.0432 15.6646 15.4616 14.9999 15.4616Z" fill="#E6485D"/>
</svg>
