<svg width="55" height="55" viewBox="0 0 55 55" fill="none" xmlns="http://www.w3.org/2000/svg">
<path d="M27.5555 0.889526C22.828 0.890512 18.1851 2.14402 14.0994 4.52248C10.0137 6.90093 6.63108 10.3194 4.29586 14.43C1.96065 18.5405 0.756194 23.1964 0.805089 27.9237C0.853983 32.6511 2.15448 37.281 4.57422 41.3424C4.45239 41.49 4.38136 41.673 4.37167 41.8642C4.36197 42.0554 4.41412 42.2446 4.52038 42.4038L5.53027 43.9186L1.23659 46.4948C1.08224 46.5874 0.95952 46.7245 0.884572 46.8882C0.809624 47.0518 0.785953 47.2343 0.816672 47.4117C0.847391 47.589 0.931061 47.7529 1.05668 47.8819C1.1823 48.0108 1.34399 48.0986 1.52049 48.1339L5.22195 48.8742L4.97416 53.4533C4.9654 53.615 5.00084 53.776 5.07666 53.9191C5.15248 54.0622 5.26583 54.1819 5.40455 54.2655C5.54327 54.349 5.70211 54.3932 5.86404 54.3933C6.02597 54.3934 6.18486 54.3494 6.32368 54.266L13.1343 50.1752C17.4402 52.9293 22.4446 54.3929 27.5559 54.3929C32.6673 54.3929 37.6717 52.9293 41.9776 50.1752L48.7882 54.266C48.927 54.3494 49.0859 54.3934 49.2478 54.3933C49.4098 54.3932 49.5686 54.349 49.7073 54.2655C49.846 54.1819 49.9594 54.0622 50.0352 53.9191C50.111 53.776 50.1465 53.615 50.1377 53.4533L49.8899 48.8742L53.5914 48.1339C53.7679 48.0986 53.9296 48.0108 54.0552 47.8819C54.1808 47.7529 54.2645 47.589 54.2952 47.4117C54.3259 47.2343 54.3022 47.0518 54.2273 46.8882C54.1523 46.7245 54.0296 46.5874 53.8753 46.4948L49.5813 43.9186L50.5911 42.4038C50.6974 42.2445 50.7496 42.0552 50.7399 41.864C50.7301 41.6727 50.659 41.4897 50.5371 41.3421C52.9576 37.2808 54.2588 32.6507 54.308 27.9231C54.3573 23.1955 53.1529 18.5392 50.8175 14.4284C48.4821 10.3176 45.0991 6.8991 41.013 4.52087C36.9268 2.14265 32.2834 0.889676 27.5555 0.889526V0.889526ZM9.09328 41.0594C14.855 38.2938 21.1645 36.858 27.5555 36.858C33.9466 36.858 40.2561 38.2938 46.0178 41.0594L48.5369 42.2688L45.964 46.1283C40.1834 43.4978 33.9062 42.1368 27.5553 42.1368C21.2044 42.1368 14.9272 43.4978 9.14667 46.1283L6.57381 42.2688L9.09328 41.0594ZM27.5555 35.0745C22.5181 35.0816 17.518 35.9394 12.7662 37.6118C10.7728 34.6697 9.71161 31.1953 9.72095 27.6414C9.72095 17.8073 17.7214 9.80682 27.5555 9.80682C37.3896 9.80682 45.3901 17.8073 45.3901 27.6414C45.3986 31.1952 44.3373 34.6693 42.3443 37.6116C37.5927 35.9393 32.5928 35.0816 27.5555 35.0745V35.0745ZM33.7274 44.3752C29.7436 45.843 25.3671 45.843 21.3833 44.3752C25.4757 43.7685 29.6351 43.7685 33.7274 44.3752V44.3752ZM6.84579 51.8721L7.04442 48.1995C7.05604 47.9853 6.9901 47.7742 6.85869 47.6047C6.72728 47.4353 6.5392 47.3188 6.32892 47.2768L4.13203 46.8375L6.52075 45.4042L8.0873 47.7542C8.20623 47.9325 8.38542 48.0621 8.59207 48.1191C8.79873 48.1761 9.019 48.1567 9.21255 48.0646C9.80942 47.7804 10.4133 47.5105 11.0242 47.255L12.0274 48.7598L6.84579 51.8721ZM14.0996 48.6763C14.0798 48.6318 14.0565 48.589 14.0298 48.5482L12.7216 46.5864C14.5432 45.9133 16.4082 45.3642 18.3038 44.9429C21.1504 46.4638 24.3281 47.2595 27.5555 47.2595C30.783 47.2595 33.9606 46.4638 36.8072 44.9429C38.703 45.3639 40.568 45.9129 42.3896 46.5859L41.0814 48.5477C41.0547 48.5884 41.0314 48.6312 41.0117 48.6757C36.9938 51.2443 32.3246 52.6092 27.5557 52.6092C22.7869 52.6092 18.1176 51.2443 14.0997 48.6757L14.0996 48.6763ZM50.9791 46.8371L48.7822 47.2764C48.5719 47.3185 48.3838 47.4349 48.2524 47.6044C48.121 47.7739 48.055 47.985 48.0667 48.1991L48.2653 51.8717L43.0838 48.7598L44.087 47.255C44.6973 47.5111 45.3012 47.7809 45.8986 48.0646C46.0923 48.1569 46.3127 48.1763 46.5194 48.1193C46.7262 48.0623 46.9055 47.9327 47.0245 47.7542L48.591 45.4042L50.9791 46.8371ZM48.9652 40.4956L46.7896 39.4513C45.8936 39.0212 44.9828 38.622 44.0573 38.2536C46.0999 35.0917 47.1824 31.4056 47.1736 27.6414C47.1736 16.824 38.373 8.02336 27.5555 8.02336C16.7381 8.02336 7.93749 16.824 7.93749 27.6414C7.92769 31.4059 9.00986 35.0924 11.0529 38.2542C10.1287 38.6227 9.21842 39.0219 8.32194 39.4516L6.1469 40.4956C3.87327 36.7068 2.64581 32.3825 2.58984 27.9642C2.53387 23.546 3.6514 19.192 5.82832 15.3468C8.00524 11.5016 11.1636 8.30303 14.9809 6.07758C18.7981 3.85212 23.1376 2.67954 27.5563 2.67954C31.9749 2.67954 36.3144 3.85212 40.1317 6.07758C43.949 8.30303 47.1073 11.5016 49.2842 15.3468C51.4611 19.192 52.5787 23.546 52.5227 27.9642C52.4667 32.3825 51.2393 36.7068 48.9656 40.4956H48.9652Z" fill="#FF5C00"/>
<path d="M36.027 20.5076H31.1225C30.8861 20.5073 30.6594 20.4133 30.4922 20.2461C30.325 20.0789 30.231 19.8523 30.2307 19.6159V16.9407C30.2299 16.2314 29.9478 15.5514 29.4463 15.0499C28.9448 14.5484 28.2648 14.2663 27.5556 14.2655H25.7721C25.5356 14.2655 25.3088 14.3594 25.1415 14.5267C24.9743 14.6939 24.8804 14.9207 24.8804 15.1572V17.1227C24.8822 17.7963 24.7504 18.4636 24.4926 19.0859C24.2348 19.7083 23.8561 20.2733 23.3785 20.7482L22.7275 21.3993H17.7465C17.51 21.3993 17.2832 21.4933 17.116 21.6605C16.9487 21.8277 16.8548 22.0545 16.8548 22.291V32.1001C16.8548 32.3366 16.9487 32.5634 17.116 32.7306C17.2832 32.8978 17.51 32.9918 17.7465 32.9918H33.3518C33.7129 32.9919 34.0686 32.9043 34.3884 32.7364C34.7081 32.5686 34.9823 32.3257 35.1874 32.0284C35.3924 31.7312 35.5222 31.3886 35.5656 31.0301C35.6089 30.6716 35.5645 30.3079 35.4362 29.9704C35.8705 29.6957 36.1966 29.2793 36.3591 28.7918C36.5216 28.3043 36.5106 27.7756 36.3279 27.2952C36.7623 27.0205 37.0883 26.6041 37.2508 26.1166C37.4133 25.6291 37.4023 25.1004 37.2197 24.62C37.6275 24.3616 37.9405 23.9777 38.1114 23.5261C38.2823 23.0746 38.302 22.5797 38.1675 22.1159C38.0331 21.6522 37.7516 21.2447 37.3656 20.9546C36.9796 20.6646 36.5098 20.5077 36.027 20.5076V20.5076ZM18.6383 23.1828H22.2052V31.2083H18.6383V23.1828ZM36.027 23.1828H35.1353C34.8988 23.1828 34.6719 23.2767 34.5047 23.444C34.3375 23.6112 34.2435 23.838 34.2435 24.0745C34.2435 24.311 34.3375 24.5378 34.5047 24.705C34.6719 24.8723 34.8988 24.9662 35.1353 24.9662C35.2535 24.9662 35.3669 25.0132 35.4505 25.0968C35.5341 25.1804 35.5811 25.2938 35.5811 25.4121C35.5811 25.5303 35.5341 25.6438 35.4505 25.7274C35.3669 25.811 35.2535 25.858 35.1353 25.858H34.2435C34.007 25.858 33.7802 25.9519 33.613 26.1191C33.4457 26.2864 33.3518 26.5132 33.3518 26.7497C33.3518 26.9862 33.4457 27.213 33.613 27.3802C33.7802 27.5475 34.007 27.6414 34.2435 27.6414C34.3618 27.6414 34.4752 27.6884 34.5588 27.772C34.6424 27.8556 34.6894 27.969 34.6894 28.0873C34.6894 28.2055 34.6424 28.3189 34.5588 28.4026C34.4752 28.4862 34.3618 28.5331 34.2435 28.5331H33.3518C33.1153 28.5331 32.8885 28.6271 32.7213 28.7943C32.554 28.9616 32.4601 29.1884 32.4601 29.4249C32.4601 29.6614 32.554 29.8882 32.7213 30.0554C32.8885 30.2227 33.1153 30.3166 33.3518 30.3166C33.47 30.3166 33.5835 30.3636 33.6671 30.4472C33.7507 30.5308 33.7977 30.6442 33.7977 30.7625C33.7977 30.8807 33.7507 30.9941 33.6671 31.0777C33.5835 31.1614 33.47 31.2083 33.3518 31.2083H23.9886V22.6603L24.6397 22.0095C25.2834 21.3692 25.7938 20.6076 26.1412 19.7688C26.4886 18.93 26.6663 18.0306 26.6638 17.1227V16.0489H27.5556C27.792 16.0492 28.0186 16.1432 28.1858 16.3104C28.353 16.4776 28.447 16.7042 28.4473 16.9407V19.6159C28.4481 20.3251 28.7302 21.0051 29.2317 21.5066C29.7333 22.0081 30.4132 22.2902 31.1225 22.291H36.027C36.1452 22.291 36.2586 22.338 36.3423 22.4216C36.4259 22.5052 36.4729 22.6187 36.4729 22.7369C36.4729 22.8552 36.4259 22.9686 36.3423 23.0522C36.2586 23.1358 36.1452 23.1828 36.027 23.1828Z" fill="#FF5C00"/>
<path d="M25.7063 39.2562L26.5312 39.8555L26.2161 40.8253C26.1942 40.8925 26.1942 40.9649 26.216 41.032C26.2378 41.0992 26.2803 41.1578 26.3375 41.1993C26.3946 41.2409 26.4634 41.2632 26.5341 41.2632C26.6047 41.2632 26.6736 41.2408 26.7307 41.1993L27.5555 40.5999L28.3804 41.1993C28.4375 41.2408 28.5064 41.2632 28.577 41.2632C28.6477 41.2632 28.7165 41.2409 28.7736 41.1993C28.8308 41.1578 28.8733 41.0992 28.8951 41.032C28.9169 40.9649 28.9169 40.8925 28.895 40.8253L28.5799 39.8555L29.4048 39.2562C29.4619 39.2147 29.5044 39.1562 29.5262 39.089C29.5481 39.0218 29.5481 38.9495 29.5263 38.8823C29.5044 38.8152 29.4619 38.7567 29.4048 38.7151C29.3477 38.6736 29.2789 38.6513 29.2083 38.6513H28.1887L27.8736 37.6815C27.8517 37.6144 27.8092 37.5558 27.7521 37.5143C27.6949 37.4728 27.6262 37.4505 27.5555 37.4505C27.4849 37.4505 27.4161 37.4728 27.359 37.5143C27.3019 37.5558 27.2594 37.6144 27.2375 37.6815L26.9224 38.6513H25.9028C25.8322 38.6513 25.7634 38.6736 25.7063 38.7151C25.6492 38.7567 25.6067 38.8152 25.5848 38.8823C25.563 38.9495 25.563 39.0218 25.5848 39.089C25.6067 39.1562 25.6492 39.2147 25.7063 39.2562V39.2562Z" fill="#FF5C00"/>
<path d="M20.5601 39.9008L21.385 40.5002L21.0699 41.4699C21.048 41.5371 21.048 41.6095 21.0698 41.6767C21.0916 41.7439 21.1341 41.8024 21.1913 41.8439C21.2484 41.8855 21.3173 41.9078 21.3879 41.9078C21.4585 41.9078 21.5274 41.8854 21.5845 41.8439L22.4094 41.2445L23.2342 41.8439C23.2913 41.8854 23.3602 41.9078 23.4308 41.9078C23.5015 41.9078 23.5703 41.8855 23.6275 41.8439C23.6846 41.8024 23.7271 41.7439 23.7489 41.6767C23.7708 41.6095 23.7707 41.5371 23.7489 41.4699L23.4337 40.5002L24.2586 39.9008C24.3157 39.8593 24.3582 39.8008 24.3801 39.7336C24.4019 39.6665 24.4019 39.5941 24.3801 39.527C24.3582 39.4598 24.3157 39.4013 24.2586 39.3598C24.2015 39.3182 24.1327 39.2959 24.0621 39.2959H23.0424L22.7274 38.3261C22.7056 38.2589 22.663 38.2004 22.6059 38.1588C22.5488 38.1173 22.4799 38.0949 22.4093 38.0949C22.3387 38.0949 22.2698 38.1173 22.2127 38.1588C22.1556 38.2004 22.113 38.2589 22.0912 38.3261L21.7762 39.2959H20.7567C20.686 39.2959 20.6172 39.3182 20.5601 39.3598C20.503 39.4013 20.4605 39.4598 20.4387 39.527C20.4168 39.5941 20.4168 39.6665 20.4387 39.7336C20.4605 39.8008 20.503 39.8593 20.5601 39.9008V39.9008Z" fill="#FF5C00"/>
<path d="M30.8523 39.9008L31.6772 40.5002L31.362 41.4699C31.3402 41.5371 31.3401 41.6095 31.362 41.6767C31.3838 41.7439 31.4263 41.8024 31.4834 41.8439C31.5406 41.8855 31.6094 41.9078 31.6801 41.9078C31.7507 41.9078 31.8196 41.8854 31.8767 41.8439L32.7015 41.2445L33.5264 41.8439C33.5835 41.8854 33.6524 41.9078 33.723 41.9078C33.7936 41.9078 33.8625 41.8855 33.9196 41.8439C33.9768 41.8024 34.0193 41.7439 34.0411 41.6767C34.0629 41.6095 34.0629 41.5371 34.041 41.4699L33.7259 40.5002L34.5508 39.9008C34.6079 39.8593 34.6504 39.8008 34.6722 39.7336C34.6941 39.6664 34.6941 39.5941 34.6722 39.5269C34.6504 39.4597 34.6079 39.4012 34.5507 39.3597C34.4936 39.3182 34.4248 39.2959 34.3541 39.2959H33.3346L33.0195 38.3261C32.9977 38.2589 32.9552 38.2004 32.8981 38.1588C32.8409 38.1173 32.7721 38.0949 32.7015 38.0949C32.6308 38.0949 32.562 38.1173 32.5049 38.1588C32.4477 38.2004 32.4052 38.2589 32.3834 38.3261L32.0684 39.2959H31.0488C30.9782 39.2959 30.9094 39.3182 30.8523 39.3598C30.7952 39.4013 30.7527 39.4598 30.7308 39.527C30.709 39.5941 30.709 39.6665 30.7308 39.7336C30.7527 39.8008 30.7952 39.8593 30.8523 39.9008V39.9008Z" fill="#FF5C00"/>
</svg>
