<svg width="72" height="73" viewBox="0 0 72 73" fill="none" xmlns="http://www.w3.org/2000/svg">
<g clip-path="url(#clip0_49_281)">
<path d="M36.0801 0.826599C16.4115 0.826599 0.410767 16.8281 0.410767 36.496C0.410767 56.1638 16.4115 72.1653 36.0801 72.1653C55.748 72.1653 71.7495 56.1638 71.7495 36.496C71.7495 16.8281 55.748 0.826599 36.0801 0.826599ZM36.0801 69.5702C17.8427 69.5702 3.00519 54.7326 3.00519 36.496C3.00519 18.2578 17.8427 3.42102 36.0801 3.42102C54.3175 3.42102 69.1543 18.2578 69.1543 36.496C69.1543 54.7326 54.3175 69.5702 36.0801 69.5702Z" fill="#FF5C00"/>
<path d="M36.0801 9.22522C21.3331 9.22522 9.31267 20.9992 8.85317 35.6363C8.84055 35.7091 8.81012 35.7751 8.81012 35.8516C8.81012 35.8976 8.8309 35.9362 8.8361 35.9808C8.83239 36.1537 8.81012 36.3222 8.81012 36.4959C8.81012 51.5324 21.0429 63.7659 36.0801 63.7659C51.1166 63.7659 63.3501 51.5324 63.3501 36.4959C63.3501 21.4594 51.1166 9.22522 36.0801 9.22522V9.22522ZM54.0384 53.3667L50.9058 50.3351C50.3913 49.8355 49.5703 49.8496 49.0715 50.3655C48.5734 50.8807 48.5868 51.7009 49.1019 52.1998L52.167 55.1661C48.1629 58.6209 43.0461 60.7966 37.4296 61.1032V57.1451C37.4296 56.4288 36.8491 55.8476 36.1328 55.8476C35.4165 55.8476 34.8352 56.4288 34.8352 57.1451V61.1084C29.1921 60.8248 24.0463 58.6535 20.0214 55.1913L22.4993 52.6318C22.9981 52.1174 22.9848 51.2956 22.4703 50.7975C21.9544 50.2994 21.1327 50.3128 20.6361 50.8272L18.1493 53.3957C14.1214 49.1243 11.6035 43.4307 11.4379 37.1492H16.0225C16.7389 37.1492 17.3194 36.5687 17.3194 35.8523C17.3194 35.136 16.7389 34.5548 16.0225 34.5548H11.5025C11.9026 29.452 13.8483 24.7813 16.8896 21.0178L20.2033 24.2253C20.4542 24.4688 20.7801 24.5898 21.1052 24.5898C21.4437 24.5898 21.783 24.4577 22.0376 24.1949C22.5349 23.6805 22.5223 22.8587 22.0071 22.3599L18.6184 19.0796C22.8126 14.8743 28.5181 12.2004 34.8352 11.8835V15.7413C34.8352 16.4584 35.4157 17.0389 36.1321 17.0389C36.8484 17.0389 37.4296 16.4584 37.4296 15.7413V11.8887C43.1507 12.2004 48.3507 14.4579 52.3874 18.0255L49.4323 21.0786C48.9342 21.5931 48.9475 22.4141 49.4627 22.9129C49.7143 23.1564 50.0395 23.2774 50.3646 23.2774C50.7039 23.2774 51.0424 23.1453 51.297 22.8825L54.2373 19.8449C57.8591 23.7903 60.2138 28.9012 60.6569 34.5548H56.2431C55.526 34.5548 54.9455 35.1353 54.9455 35.8516C54.9455 36.5679 55.526 37.1492 56.2431 37.1492H60.7223C60.5575 43.4159 58.0499 49.0976 54.0384 53.3667V53.3667Z" fill="#FF5C00"/>
<path d="M40.8644 29.8224C38.1928 29.8224 36.0186 31.9967 36.0186 34.6691V39.4006C36.0186 42.073 38.1928 44.2465 40.8644 44.2465C43.5368 44.2465 45.7111 42.073 45.7111 39.4006V34.6691C45.7111 31.9967 43.5368 29.8224 40.8644 29.8224ZM43.1159 39.4006C43.1159 40.6425 42.1056 41.6521 40.8644 41.6521C39.6225 41.6521 38.613 40.6425 38.613 39.4006V34.6691C38.613 33.4272 39.6225 32.4169 40.8644 32.4169C42.1056 32.4169 43.1159 33.4272 43.1159 34.6691V39.4006Z" fill="#FF5C00"/>
<path d="M30.2173 34.5548H27.9658V33.5831C27.9658 31.2232 29.8862 29.3036 32.2453 29.3036C32.9624 29.3036 33.5429 28.7224 33.5429 28.006C33.5429 27.2897 32.9624 26.7084 32.2453 26.7084C28.455 26.7084 25.3714 29.7928 25.3714 33.5831V39.4007C25.3714 40.8363 26.0024 42.1896 27.1025 43.1138C27.9821 43.8516 29.086 44.2458 30.2254 44.2458C30.5105 44.2458 30.7985 44.2213 31.0858 44.1708C33.0396 43.8271 34.6445 42.223 34.9875 40.2684C35.2391 38.8365 34.8538 37.3845 33.9296 36.2859C33.0062 35.185 31.6529 34.5548 30.2173 34.5548ZM32.4324 39.8193C32.2765 40.7042 31.5215 41.4599 30.6367 41.6158C29.9478 41.7338 29.2886 41.5608 28.7712 41.1266C28.259 40.6968 27.9658 40.068 27.9658 39.4007V37.1492H30.2173C30.8846 37.1492 31.5134 37.4424 31.9424 37.9539C32.3789 38.4728 32.5519 39.1357 32.4324 39.8193Z" fill="#FF5C00"/>
</g>
<defs>
<clipPath id="clip0_49_281">
<rect width="71.3384" height="71.3384" fill="white" transform="translate(0.410767 0.826599)"/>
</clipPath>
</defs>
</svg>
