<svg width="58" height="58" viewBox="0 0 58 58" fill="none" xmlns="http://www.w3.org/2000/svg">
<path d="M54.683 29.8919C53.4847 29.8919 52.4721 30.6641 52.091 31.7329H50.0805V24.3689H48.2395V31.7329H46.3985V28.0509H44.5576V31.7329H42.7166V26.2099H40.8756V31.7329H40.3169L31.6855 23.7172C32.2644 22.8354 32.5911 21.7868 32.5911 20.6869C32.5911 19.1781 31.9816 17.8104 30.9978 16.8126L36.6799 10.5615H39.0804C39.5438 15.2062 43.4744 18.8459 48.2386 18.8459C53.3144 18.8459 57.4436 14.7167 57.4436 9.64099C57.4436 4.56523 53.3153 0.436035 48.2395 0.436035C43.4744 0.436035 39.5447 4.07577 39.0813 8.72049H35.8663L29.4925 15.7321C28.759 15.3721 27.9378 15.164 27.0681 15.164C27.0407 15.164 27.0138 15.1676 26.9872 15.1676L25.9665 10.5615H22.4657V8.97713L19.9977 8.15417C19.9473 8.02563 19.8939 7.89753 19.8377 7.76943L21.0022 5.44168L17.46 1.89948L15.1323 3.06403C15.0042 3.00695 14.8761 2.95346 14.7475 2.90402L13.9246 0.436035H8.91578L8.09326 2.90402C7.96427 2.95436 7.83617 3.00785 7.70808 3.06403L5.38032 1.90038L1.83812 5.44258L3.00267 7.77033C2.94559 7.89843 2.89211 8.02653 2.84267 8.15552L0.373779 8.97713V13.9859L2.84177 14.8084C2.89211 14.9374 2.94559 15.0655 3.00178 15.1936L1.83722 17.5214L5.37942 21.0636L7.70718 19.899C7.83527 19.9561 7.96337 20.0096 8.09102 20.0599L8.91488 22.5279H13.9237L14.7462 20.0599C14.8743 20.0096 15.0024 19.9561 15.13 19.899L17.4582 21.0636L21.0004 17.5214L19.8359 15.1936C19.893 15.0655 19.9464 14.9374 19.9959 14.8084L22.4657 13.9868V12.4025H24.4878L25.1755 15.5047C23.0612 16.2795 21.5452 18.3066 21.5452 20.6869C21.5452 22.2066 22.174 23.6102 23.2185 24.6305L18.3014 31.7329H16.9427V26.2099H15.1017V31.7329H13.2607V24.3689H11.4197V31.7329H9.57873V28.0509H7.73774V31.7329H5.7273C5.34616 30.6641 4.33353 29.8919 3.13527 29.8919C1.61294 29.8919 0.373779 31.131 0.373779 32.6534C0.373779 34.1757 1.61294 35.4149 3.13527 35.4149C4.33353 35.4149 5.34616 34.6427 5.7273 33.5739H19.266L24.3067 26.2926V45.152C24.1327 44.9731 24.0091 44.7439 23.9624 44.4845L22.3128 35.4149H19.87C18.256 35.4149 16.9427 36.7282 16.9427 38.3422V38.9301C16.9427 39.0923 16.9566 39.2541 16.9822 39.4115L18.6381 49.3477C18.7671 50.1208 19.0947 50.8543 19.5846 51.4655L21.8607 54.3106C22.2513 54.7996 22.4657 55.4127 22.4657 56.0366V57.5067H37.1936V56.0366C37.1936 55.4118 37.408 54.7996 37.7986 54.3106L39.8665 51.7253C40.5174 50.9132 40.8756 49.8924 40.8756 48.8515V39.0968C40.8756 37.5745 39.6364 36.3354 38.1141 36.3354C37.7505 36.3354 37.4053 36.41 37.0866 36.5381C36.7693 35.3641 35.705 34.4944 34.4321 34.4944C34.108 34.4944 33.8006 34.5604 33.5116 34.6638V34.4944C33.5116 32.972 32.2724 31.7329 30.7501 31.7329C30.4261 31.7329 30.1186 31.7989 29.8296 31.9023V25.4589C30.0386 25.3384 30.2346 25.204 30.4234 25.0584L39.5933 33.5739H52.091C52.4721 34.6427 53.4847 35.4149 54.683 35.4149C56.2053 35.4149 57.4445 34.1757 57.4445 32.6534C57.4445 31.131 56.2053 29.8919 54.683 29.8919V29.8919ZM40.8756 9.64099C40.8756 8.62925 41.081 7.66381 41.4518 6.78556L43.068 7.71909C42.8447 8.31823 42.7166 8.96455 42.7166 9.64099C42.7166 10.3174 42.8447 10.9638 43.068 11.5629L41.4518 12.4964C41.081 11.6182 40.8756 10.6527 40.8756 9.64099ZM48.2395 5.95901C50.2702 5.95901 51.9215 7.61032 51.9215 9.64099C51.9215 11.6717 50.2702 13.323 48.2395 13.323C46.2089 13.323 44.5576 11.6717 44.5576 9.64099C44.5576 7.61032 46.2089 5.95901 48.2395 5.95901ZM55.6035 9.64099C55.6035 10.6527 55.3981 11.6182 55.0273 12.4964L53.411 11.5629C53.6344 10.9638 53.7625 10.3174 53.7625 9.64099C53.7625 8.96455 53.6344 8.31823 53.411 7.71909L55.0273 6.78556C55.3981 7.66381 55.6035 8.62925 55.6035 9.64099ZM42.3826 14.0862L43.9858 13.1603C44.8133 14.159 45.9873 14.8565 47.319 15.0813V16.9416C45.3086 16.6881 43.5526 15.6242 42.3826 14.0862ZM49.16 16.9416V15.0813C50.4918 14.8565 51.6658 14.159 52.4932 13.1603L54.0965 14.0862C52.9265 15.6242 51.1705 16.6881 49.16 16.9416ZM54.0965 5.19582L52.4932 6.12171C51.6658 5.12391 50.4918 4.42635 49.16 4.20072V2.3404C51.1705 2.5939 52.9265 3.65777 54.0965 5.19582ZM47.319 2.3404V4.20072C45.9873 4.42545 44.8133 5.12301 43.9858 6.12171L42.3826 5.19582C43.5526 3.65777 45.3086 2.5939 47.319 2.3404ZM20.6247 12.6591L18.5536 13.3495L18.4088 13.7886C18.2996 14.1212 18.1594 14.4579 17.9913 14.7891L17.7823 15.2026L18.7599 17.1587L17.0946 18.8239L15.1395 17.8463L14.7269 18.0544C14.392 18.223 14.0549 18.3637 13.7255 18.4724L13.2863 18.6167L12.5969 20.6869H10.2417L9.55131 18.6158L9.11219 18.4711C8.78229 18.3628 8.44474 18.2216 8.11034 18.0535L7.69819 17.8454L5.74304 18.823L4.07778 17.1578L5.05536 15.2017L4.84726 14.7891C4.68006 14.457 4.53983 14.1203 4.42926 13.7886L4.28588 13.3495L2.21477 12.6591V10.3039L4.28588 9.61357L4.43061 9.17445C4.53983 8.84185 4.68006 8.5052 4.84816 8.1735L5.05716 7.76044L4.07778 5.80529L5.74304 4.14004L7.69909 5.11762L8.11259 4.90952C8.44474 4.74232 8.78139 4.60209 9.11309 4.49152L9.55221 4.34724L10.2426 2.27703H12.5978L13.2881 4.34814L13.7273 4.49287C14.0599 4.60209 14.3965 4.74232 14.7282 4.91042L15.1413 5.11941L17.0973 4.14184L18.7626 5.80709L17.785 7.76314L17.994 8.17665C18.1616 8.5088 18.3014 8.84589 18.412 9.17714L18.5563 9.61627L20.6274 10.3066V12.6591H20.6247ZM3.13527 33.5739C2.62827 33.5739 2.21477 33.1604 2.21477 32.6534C2.21477 32.1464 2.62827 31.7329 3.13527 31.7329C3.64226 31.7329 4.05576 32.1464 4.05576 32.6534C4.05576 33.1604 3.64226 33.5739 3.13527 33.5739ZM27.0681 17.005C29.0988 17.005 30.7501 18.6563 30.7501 20.6869C30.7501 21.6164 30.3986 22.4884 29.8 23.1522C29.6503 21.7701 28.4893 20.6869 27.0681 20.6869C25.6451 20.6869 24.4842 21.7724 24.3363 23.1558C23.7367 22.4929 23.3862 21.6205 23.3862 20.6869C23.3862 18.6563 25.0375 17.005 27.0681 17.005ZM30.7501 33.5739C31.2571 33.5739 31.6706 33.9874 31.6706 34.4944V45.5403H33.5116V37.2558C33.5116 36.7489 33.9251 36.3354 34.4321 36.3354C34.9391 36.3354 35.3526 36.7489 35.3526 37.2558V45.5403H37.1936V39.0968C37.1936 38.5898 37.6071 38.1763 38.1141 38.1763C38.6211 38.1763 39.0346 38.5898 39.0346 39.0968V48.8515C39.0346 49.4762 38.8202 50.0884 38.4296 50.5774L36.3616 53.1627C35.7881 53.8791 35.442 54.7565 35.3683 55.6667H24.2909C24.2163 54.7565 23.8702 53.8791 23.2976 53.1627L21.0215 50.3176C20.7276 49.9504 20.5307 49.5113 20.4534 49.0465L18.7976 39.109C18.7882 39.0492 18.7837 38.9899 18.7837 38.9301V38.3422C18.7837 37.7426 19.2705 37.2558 19.87 37.2558H20.7766L22.151 44.814C22.4225 46.3017 23.7156 47.3813 25.2272 47.3813H26.1476V23.4484C26.1476 22.9414 26.5612 22.5279 27.0681 22.5279C27.5751 22.5279 27.9886 22.9414 27.9886 23.4484V45.5403H29.8296V34.4944C29.8296 33.9874 30.2431 33.5739 30.7501 33.5739ZM54.683 33.5739C54.176 33.5739 53.7625 33.1604 53.7625 32.6534C53.7625 32.1464 54.176 31.7329 54.683 31.7329C55.19 31.7329 55.6035 32.1464 55.6035 32.6534C55.6035 33.1604 55.19 33.5739 54.683 33.5739Z" fill="#FF5C00"/>
</svg>
