<svg width="330" height="90" viewBox="0 0 330 90" fill="none" xmlns="http://www.w3.org/2000/svg">
<path d="M119.098 23.7812L122.75 34.0938L126.383 23.7812H130.23V38H127.291V34.1133L127.584 27.4043L123.746 38H121.734L117.906 27.4141L118.199 34.1133V38H115.27V23.7812H119.098ZM132.164 32.6191C132.164 31.571 132.366 30.6367 132.77 29.8164C133.173 28.9961 133.753 28.3613 134.508 27.9121C135.27 27.4629 136.152 27.2383 137.154 27.2383C138.58 27.2383 139.742 27.6745 140.641 28.5469C141.546 29.4193 142.05 30.6042 142.154 32.1016L142.174 32.8242C142.174 34.4453 141.721 35.7474 140.816 36.7305C139.911 37.707 138.697 38.1953 137.174 38.1953C135.65 38.1953 134.433 37.707 133.521 36.7305C132.617 35.7539 132.164 34.4258 132.164 32.7461V32.6191ZM134.986 32.8242C134.986 33.8268 135.175 34.5951 135.553 35.1289C135.93 35.6562 136.471 35.9199 137.174 35.9199C137.857 35.9199 138.391 35.6595 138.775 35.1387C139.16 34.6113 139.352 33.7715 139.352 32.6191C139.352 31.6361 139.16 30.8743 138.775 30.334C138.391 29.7936 137.851 29.5234 137.154 29.5234C136.464 29.5234 135.93 29.7936 135.553 30.334C135.175 30.8678 134.986 31.6979 134.986 32.8242ZM149.635 35.0801C149.635 34.735 149.462 34.4648 149.117 34.2695C148.779 34.0677 148.232 33.8887 147.477 33.7324C144.964 33.2051 143.707 32.1374 143.707 30.5293C143.707 29.5918 144.094 28.8105 144.869 28.1855C145.65 27.554 146.669 27.2383 147.926 27.2383C149.267 27.2383 150.338 27.554 151.139 28.1855C151.946 28.8171 152.35 29.6374 152.35 30.6465H149.527C149.527 30.2428 149.397 29.9108 149.137 29.6504C148.876 29.3835 148.469 29.25 147.916 29.25C147.441 29.25 147.073 29.3574 146.812 29.5723C146.552 29.7871 146.422 30.0605 146.422 30.3926C146.422 30.7051 146.568 30.959 146.861 31.1543C147.161 31.3431 147.662 31.5091 148.365 31.6523C149.068 31.7891 149.661 31.9453 150.143 32.1211C151.633 32.668 152.379 33.6152 152.379 34.9629C152.379 35.9264 151.965 36.7077 151.139 37.3066C150.312 37.8991 149.244 38.1953 147.936 38.1953C147.05 38.1953 146.262 38.0391 145.572 37.7266C144.889 37.4076 144.352 36.9746 143.961 36.4277C143.57 35.8743 143.375 35.2786 143.375 34.6406H146.051C146.077 35.1419 146.262 35.526 146.607 35.793C146.952 36.0599 147.415 36.1934 147.994 36.1934C148.535 36.1934 148.941 36.0924 149.215 35.8906C149.495 35.6823 149.635 35.4121 149.635 35.0801ZM158.6 35.9199C159.12 35.9199 159.544 35.7767 159.869 35.4902C160.195 35.2038 160.364 34.8229 160.377 34.3477H163.023C163.017 35.0638 162.822 35.7214 162.438 36.3203C162.053 36.9128 161.526 37.375 160.855 37.707C160.191 38.0326 159.456 38.1953 158.648 38.1953C157.138 38.1953 155.947 37.7168 155.074 36.7598C154.202 35.7962 153.766 34.4681 153.766 32.7754V32.5898C153.766 30.9622 154.199 29.6634 155.064 28.6934C155.93 27.7233 157.118 27.2383 158.629 27.2383C159.951 27.2383 161.008 27.6159 161.803 28.3711C162.604 29.1198 163.01 30.1191 163.023 31.3691H160.377C160.364 30.8223 160.195 30.3796 159.869 30.041C159.544 29.696 159.114 29.5234 158.58 29.5234C157.923 29.5234 157.424 29.7643 157.086 30.2461C156.754 30.7214 156.588 31.4961 156.588 32.5703V32.8633C156.588 33.9505 156.754 34.7318 157.086 35.207C157.418 35.6823 157.923 35.9199 158.6 35.9199ZM164.195 32.6191C164.195 31.571 164.397 30.6367 164.801 29.8164C165.204 28.9961 165.784 28.3613 166.539 27.9121C167.301 27.4629 168.183 27.2383 169.186 27.2383C170.611 27.2383 171.773 27.6745 172.672 28.5469C173.577 29.4193 174.081 30.6042 174.186 32.1016L174.205 32.8242C174.205 34.4453 173.753 35.7474 172.848 36.7305C171.943 37.707 170.729 38.1953 169.205 38.1953C167.682 38.1953 166.464 37.707 165.553 36.7305C164.648 35.7539 164.195 34.4258 164.195 32.7461V32.6191ZM167.018 32.8242C167.018 33.8268 167.206 34.5951 167.584 35.1289C167.962 35.6562 168.502 35.9199 169.205 35.9199C169.889 35.9199 170.423 35.6595 170.807 35.1387C171.191 34.6113 171.383 33.7715 171.383 32.6191C171.383 31.6361 171.191 30.8743 170.807 30.334C170.423 29.7936 169.882 29.5234 169.186 29.5234C168.495 29.5234 167.962 29.7936 167.584 30.334C167.206 30.8678 167.018 31.6979 167.018 32.8242ZM185.133 34.1621L186.52 27.4336H189.244L186.549 38H184.186L182.184 31.3496L180.182 38H177.828L175.133 27.4336H177.857L179.234 34.1523L181.168 27.4336H183.209L185.133 34.1621ZM190.211 32.6191C190.211 30.959 190.579 29.6471 191.314 28.6836C192.057 27.7201 193.072 27.2383 194.361 27.2383C195.494 27.2383 196.396 27.6712 197.066 28.5371L197.252 27.4336H199.732V42.0625H196.9V37.0918C196.249 37.8275 195.396 38.1953 194.342 38.1953C193.085 38.1953 192.083 37.707 191.334 36.7305C190.585 35.7539 190.211 34.3835 190.211 32.6191ZM193.033 32.8242C193.033 33.8333 193.209 34.6016 193.561 35.1289C193.919 35.6562 194.42 35.9199 195.064 35.9199C195.93 35.9199 196.542 35.5749 196.9 34.8848V30.5195C196.549 29.8555 195.943 29.5234 195.084 29.5234C194.433 29.5234 193.928 29.7871 193.57 30.3145C193.212 30.8418 193.033 31.6784 193.033 32.8242ZM208.287 36.9258C207.59 37.7721 206.627 38.1953 205.396 38.1953C204.264 38.1953 203.398 37.8698 202.799 37.2188C202.206 36.5677 201.904 35.6139 201.891 34.3574V27.4336H204.713V34.2598C204.713 35.36 205.214 35.9102 206.217 35.9102C207.174 35.9102 207.831 35.5781 208.189 34.9141V27.4336H211.021V38H208.365L208.287 36.9258ZM219.273 38C219.143 37.7461 219.049 37.4303 218.99 37.0527C218.307 37.8145 217.418 38.1953 216.324 38.1953C215.289 38.1953 214.43 37.8958 213.746 37.2969C213.069 36.6979 212.73 35.9427 212.73 35.0312C212.73 33.9115 213.144 33.0521 213.971 32.4531C214.804 31.8542 216.005 31.5514 217.574 31.5449H218.873V30.9395C218.873 30.4512 218.746 30.0605 218.492 29.7676C218.245 29.4746 217.851 29.3281 217.311 29.3281C216.835 29.3281 216.461 29.4421 216.188 29.6699C215.921 29.8978 215.787 30.2103 215.787 30.6074H212.965C212.965 29.9954 213.154 29.429 213.531 28.9082C213.909 28.3874 214.443 27.9805 215.133 27.6875C215.823 27.388 216.598 27.2383 217.457 27.2383C218.759 27.2383 219.791 27.5671 220.553 28.2246C221.321 28.8757 221.705 29.7936 221.705 30.9785V35.5586C221.712 36.5612 221.852 37.3197 222.125 37.834V38H219.273ZM216.939 36.0371C217.356 36.0371 217.74 35.946 218.092 35.7637C218.443 35.5749 218.704 35.3242 218.873 35.0117V33.1953H217.818C216.406 33.1953 215.654 33.6836 215.562 34.6602L215.553 34.8262C215.553 35.1777 215.676 35.4674 215.924 35.6953C216.171 35.9232 216.51 36.0371 216.939 36.0371ZM226.852 38H224.02V23H226.852V38Z" fill="white"/>
<path d="M117.524 57.2451V62H115.301V49.2031H120.196C121.626 49.2031 122.76 49.5752 123.598 50.3193C124.441 51.0635 124.863 52.0479 124.863 53.2725C124.863 54.5264 124.45 55.502 123.624 56.1992C122.804 56.8965 121.652 57.2451 120.17 57.2451H117.524ZM117.524 55.4609H120.196C120.987 55.4609 121.591 55.2764 122.007 54.9072C122.423 54.5322 122.631 53.9932 122.631 53.29C122.631 52.5986 122.42 52.0479 121.998 51.6377C121.576 51.2217 120.996 51.0078 120.258 50.9961H117.524V55.4609ZM130.673 62.1758C129.319 62.1758 128.221 61.751 127.377 60.9014C126.539 60.0459 126.12 58.9092 126.12 57.4912V57.2275C126.12 56.2783 126.302 55.4316 126.665 54.6875C127.034 53.9375 127.55 53.3545 128.212 52.9385C128.874 52.5225 129.612 52.3145 130.427 52.3145C131.722 52.3145 132.721 52.7275 133.424 53.5537C134.133 54.3799 134.487 55.5488 134.487 57.0605V57.9219H128.273C128.338 58.707 128.599 59.3281 129.056 59.7852C129.519 60.2422 130.099 60.4707 130.796 60.4707C131.774 60.4707 132.571 60.0752 133.187 59.2842L134.338 60.3828C133.957 60.9512 133.447 61.3936 132.809 61.71C132.176 62.0205 131.464 62.1758 130.673 62.1758ZM130.418 54.0283C129.832 54.0283 129.357 54.2334 128.994 54.6436C128.637 55.0537 128.408 55.625 128.309 56.3574H132.378V56.1992C132.331 55.4844 132.141 54.9453 131.807 54.582C131.473 54.2129 131.01 54.0283 130.418 54.0283ZM141.8 59.3721L144.612 52.4902H147.284V62H145.148V55.707L142.529 62H141.079L138.451 55.6719V62H136.315V52.4902H139.005L141.8 59.3721ZM149.288 57.1572C149.288 56.2256 149.473 55.3877 149.842 54.6436C150.211 53.8936 150.729 53.3193 151.397 52.9209C152.065 52.5166 152.833 52.3145 153.7 52.3145C154.983 52.3145 156.023 52.7275 156.82 53.5537C157.623 54.3799 158.057 55.4756 158.121 56.8408L158.13 57.3418C158.13 58.2793 157.948 59.1172 157.585 59.8555C157.228 60.5938 156.712 61.165 156.038 61.5693C155.37 61.9736 154.597 62.1758 153.718 62.1758C152.376 62.1758 151.301 61.7305 150.492 60.8398C149.689 59.9434 149.288 58.751 149.288 57.2627V57.1572ZM151.424 57.3418C151.424 58.3203 151.626 59.0879 152.03 59.6445C152.435 60.1953 152.997 60.4707 153.718 60.4707C154.438 60.4707 154.998 60.1895 155.396 59.627C155.801 59.0645 156.003 58.2412 156.003 57.1572C156.003 56.1963 155.795 55.4346 155.379 54.8721C154.969 54.3096 154.409 54.0283 153.7 54.0283C153.003 54.0283 152.449 54.3066 152.039 54.8633C151.629 55.4141 151.424 56.2402 151.424 57.3418ZM167.991 62H165.855V58.1592H162.155V62H160.02V52.4902H162.155V56.4541H165.855V52.4902H167.991V62ZM177.756 54.1865H174.671V62H172.535V54.1865H169.485V52.4902H177.756V54.1865ZM188.145 53.0176C189.34 53.0176 190.298 53.4189 191.019 54.2217C191.739 55.0186 192.1 56.1025 192.1 57.4736V57.5791C192.1 58.9502 191.707 60.0605 190.922 60.9102C190.143 61.7598 189.082 62.1846 187.74 62.1846C186.434 62.1846 185.379 61.751 184.576 60.8838C183.773 60.0166 183.372 58.833 183.372 57.333V56.7178C183.372 54.667 183.735 53.0439 184.462 51.8486C185.188 50.6533 186.272 49.9062 187.714 49.6074C188.522 49.4434 189.044 49.2705 189.278 49.0889C189.519 48.9014 189.639 48.6494 189.639 48.333H191.361C191.361 48.9248 191.265 49.4053 191.071 49.7744C190.878 50.1436 190.582 50.4453 190.184 50.6797C189.785 50.9082 189.1 51.125 188.127 51.3301C187.236 51.5176 186.557 51.8516 186.088 52.332C185.625 52.8125 185.314 53.4775 185.156 54.3271C186.006 53.4541 187.002 53.0176 188.145 53.0176ZM187.723 54.7314C187.031 54.7314 186.489 54.9658 186.097 55.4346C185.704 55.8975 185.508 56.6123 185.508 57.5791C185.508 58.4932 185.701 59.2051 186.088 59.7148C186.475 60.2246 187.025 60.4795 187.74 60.4795C188.449 60.4795 188.997 60.2246 189.384 59.7148C189.776 59.1992 189.973 58.4258 189.973 57.3945C189.973 56.5742 189.776 55.9268 189.384 55.4521C188.997 54.9717 188.443 54.7314 187.723 54.7314ZM196.072 55.5137H198.164C198.943 55.5137 199.623 55.6484 200.203 55.918C200.783 56.1875 201.223 56.5654 201.521 57.0518C201.826 57.5381 201.979 58.1035 201.979 58.748C201.979 59.7266 201.633 60.5117 200.941 61.1035C200.25 61.6953 199.33 61.9941 198.182 62H193.937V52.4902H196.072V55.5137ZM205.696 62H203.561V52.4902H205.696V62ZM196.072 57.2275V60.2949H198.155C198.677 60.2949 199.087 60.166 199.386 59.9082C199.69 59.6445 199.843 59.2725 199.843 58.792C199.843 58.3115 199.693 57.9336 199.395 57.6582C199.102 57.377 198.703 57.2334 198.199 57.2275H196.072ZM215.742 54.1865H212.657V62H210.521V54.1865H207.472V52.4902H215.742V54.1865ZM216.507 57.1572C216.507 56.2256 216.691 55.3877 217.061 54.6436C217.43 53.8936 217.948 53.3193 218.616 52.9209C219.284 52.5166 220.052 52.3145 220.919 52.3145C222.202 52.3145 223.242 52.7275 224.039 53.5537C224.842 54.3799 225.275 55.4756 225.34 56.8408L225.349 57.3418C225.349 58.2793 225.167 59.1172 224.804 59.8555C224.446 60.5938 223.931 61.165 223.257 61.5693C222.589 61.9736 221.815 62.1758 220.937 62.1758C219.595 62.1758 218.52 61.7305 217.711 60.8398C216.908 59.9434 216.507 58.751 216.507 57.2627V57.1572ZM218.643 57.3418C218.643 58.3203 218.845 59.0879 219.249 59.6445C219.653 60.1953 220.216 60.4707 220.937 60.4707C221.657 60.4707 222.217 60.1895 222.615 59.627C223.02 59.0645 223.222 58.2412 223.222 57.1572C223.222 56.1963 223.014 55.4346 222.598 54.8721C222.188 54.3096 221.628 54.0283 220.919 54.0283C220.222 54.0283 219.668 54.3066 219.258 54.8633C218.848 55.4141 218.643 56.2402 218.643 57.3418ZM227.317 62V52.4902H231.176C232.477 52.4902 233.467 52.7188 234.146 53.1758C234.826 53.627 235.166 54.2773 235.166 55.127C235.166 55.5664 235.028 55.9619 234.753 56.3135C234.483 56.6592 234.082 56.9258 233.549 57.1133C234.17 57.2422 234.662 57.5029 235.025 57.8955C235.389 58.2881 235.57 58.751 235.57 59.2842C235.57 60.1689 235.242 60.8428 234.586 61.3057C233.936 61.7686 232.998 62 231.773 62H227.317ZM229.453 57.9482V60.3125H231.791C232.887 60.3125 233.435 59.9199 233.435 59.1348C233.435 58.3438 232.878 57.9482 231.765 57.9482H229.453ZM229.453 56.4189H231.211C232.424 56.4189 233.03 56.0615 233.03 55.3467C233.03 54.5967 232.456 54.21 231.308 54.1865H229.453V56.4189ZM237.021 57.1572C237.021 56.2256 237.205 55.3877 237.574 54.6436C237.943 53.8936 238.462 53.3193 239.13 52.9209C239.798 52.5166 240.565 52.3145 241.433 52.3145C242.716 52.3145 243.756 52.7275 244.553 53.5537C245.355 54.3799 245.789 55.4756 245.854 56.8408L245.862 57.3418C245.862 58.2793 245.681 59.1172 245.317 59.8555C244.96 60.5938 244.444 61.165 243.771 61.5693C243.103 61.9736 242.329 62.1758 241.45 62.1758C240.108 62.1758 239.033 61.7305 238.225 60.8398C237.422 59.9434 237.021 58.751 237.021 57.2627V57.1572ZM239.156 57.3418C239.156 58.3203 239.358 59.0879 239.763 59.6445C240.167 60.1953 240.729 60.4707 241.45 60.4707C242.171 60.4707 242.73 60.1895 243.129 59.627C243.533 59.0645 243.735 58.2412 243.735 57.1572C243.735 56.1963 243.527 55.4346 243.111 54.8721C242.701 54.3096 242.142 54.0283 241.433 54.0283C240.735 54.0283 240.182 54.3066 239.771 54.8633C239.361 55.4141 239.156 56.2402 239.156 57.3418ZM253.605 52.4902H255.732V62H253.605V55.6543L249.879 62H247.752V52.4902H249.879V58.8359L253.605 52.4902ZM254.607 48.8428C254.607 49.5811 254.35 50.1787 253.834 50.6357C253.318 51.0928 252.63 51.3213 251.769 51.3213C250.907 51.3213 250.219 51.0928 249.703 50.6357C249.188 50.1787 248.93 49.5811 248.93 48.8428H250.529C250.529 49.2295 250.638 49.5312 250.854 49.748C251.077 49.959 251.382 50.0645 251.769 50.0645C252.155 50.0645 252.457 49.959 252.674 49.748C252.891 49.5312 252.999 49.2295 252.999 48.8428H254.607ZM269.971 54.1865H266.886V62H264.75V54.1865H261.7V52.4902H269.971V54.1865ZM275.024 62.1758C273.671 62.1758 272.572 61.751 271.729 60.9014C270.891 60.0459 270.472 58.9092 270.472 57.4912V57.2275C270.472 56.2783 270.653 55.4316 271.017 54.6875C271.386 53.9375 271.901 53.3545 272.563 52.9385C273.226 52.5225 273.964 52.3145 274.778 52.3145C276.073 52.3145 277.072 52.7275 277.775 53.5537C278.484 54.3799 278.839 55.5488 278.839 57.0605V57.9219H272.625C272.689 58.707 272.95 59.3281 273.407 59.7852C273.87 60.2422 274.45 60.4707 275.147 60.4707C276.126 60.4707 276.923 60.0752 277.538 59.2842L278.689 60.3828C278.309 60.9512 277.799 61.3936 277.16 61.71C276.527 62.0205 275.815 62.1758 275.024 62.1758ZM274.77 54.0283C274.184 54.0283 273.709 54.2334 273.346 54.6436C272.988 55.0537 272.76 55.625 272.66 56.3574H276.729V56.1992C276.683 55.4844 276.492 54.9453 276.158 54.582C275.824 54.2129 275.361 54.0283 274.77 54.0283ZM283.919 55.6191L285.729 52.4902H288.103L285.193 57.1748L288.199 62H285.844L283.945 58.748L282.056 62H279.683L282.688 57.1748L279.788 52.4902H282.144L283.919 55.6191ZM297.612 62H295.477V58.1592H291.776V62H289.641V52.4902H291.776V56.4541H295.477V52.4902H297.612V62ZM305.83 52.4902H307.957V62H305.83V55.6543L302.104 62H299.977V52.4902H302.104V58.8359L305.83 52.4902ZM313.608 58.2383H312.527V62H310.392V52.4902H312.527V56.2871H313.468L316.096 52.4902H318.732L315.296 57.043L319.022 62H316.245L313.608 58.2383ZM326.133 52.4902H328.26V62H326.133V55.6543L322.406 62H320.279V52.4902H322.406V58.8359L326.133 52.4902Z" fill="white"/>
<path d="M90 45C90 52.9646 87.9293 60.4477 84.2994 66.9375C82.7684 69.6744 75.2688 54.5173 73.2192 56.864C69.686 60.9122 65.4391 64.3206 60.6755 66.8958C54.3192 70.3324 47.0419 72.2835 39.3075 72.2835C31.5731 72.2835 29.9883 88.0488 23.632 84.6123C18.8684 82.0371 14.6215 78.6287 11.0883 74.5805C9.03867 72.2338 7.23164 69.6744 5.70059 66.9375C2.0707 60.4477 0 52.9646 0 45C0 37.0354 2.0707 29.5523 5.70059 23.0625C10.7719 13.9957 18.8895 6.86602 28.6682 3.05684C33.7307 1.08281 39.2396 0 45 0C50.7604 0 56.2693 1.08281 61.3318 3.05684C71.1105 6.86602 79.2281 13.9957 84.2994 23.0625C87.9293 29.5523 90 37.0354 90 45Z" fill="#DC4356"/>
<path d="M84.2994 12.2344V66.9375C76.602 80.6976 61.8873 90 45 90H14.8781C9.80861 90 5.70061 85.892 5.70061 80.8224V12.2344C5.70061 7.16659 9.80861 3.05682 14.8781 3.05682H75.1219C80.1914 3.05682 84.2994 7.16659 84.2994 12.2344Z" fill="#D2D9F8"/>
<path d="M19.1809 89.9996H14.8766C9.80914 89.9996 5.70061 85.8911 5.70061 80.8236V12.2355C5.70061 7.16637 9.80914 3.05783 14.8766 3.05783H19.1809C14.1117 3.05783 10.0032 7.16637 10.0032 12.2355V80.8236C10.003 85.8911 14.1116 89.9996 19.1809 89.9996Z" fill="#C3CCEC"/>
<path d="M78.9115 12.2352V25.9166H11.0884V12.2352C11.0884 10.145 12.7872 8.44452 14.8774 8.44452H75.1227C77.2127 8.44452 78.9115 10.145 78.9115 12.2352Z" fill="#E8ECFD"/>
<path d="M78.9118 31.6318V74.5805C75.3786 78.6287 71.1317 82.0371 66.3681 84.6123H14.8782C12.7864 84.6123 11.0884 82.9125 11.0884 80.8242V31.6318H78.9118Z" fill="#E8ECFD"/>
<path d="M45 82.8573C58.4817 82.8573 69.4108 71.9282 69.4108 58.4465C69.4108 44.9649 58.4817 34.0358 45 34.0358C31.5184 34.0358 20.5893 44.9649 20.5893 58.4465C20.5893 71.9282 31.5184 82.8573 45 82.8573Z" fill="#D2D9F8"/>
<path d="M64.0289 58.4473C64.0289 68.9556 55.5102 77.4761 45.0001 77.4761C39.4568 77.4761 34.4665 75.1059 30.9901 71.3224C32.7175 69.4422 34.0733 67.2156 34.9371 64.7555C35.016 64.5293 35.0916 64.2994 35.1616 64.0696C35.7111 62.2937 36.0073 60.4063 36.0073 58.4473C36.0073 56.2351 35.6302 54.1125 34.9371 52.1372C34.0733 49.6772 32.7177 47.4506 30.9901 45.5704C34.4665 41.7869 39.4568 39.4167 45.0001 39.4167C55.5102 39.4165 64.0289 47.9371 64.0289 58.4473Z" fill="#50405A"/>
<path d="M56.8767 58.4472C56.8767 65.0051 51.5597 70.3221 45 70.3221C40.7586 70.3221 37.038 68.099 34.9369 64.7555C35.63 62.782 36.0071 60.6595 36.0071 58.4472C36.0071 56.235 35.63 54.1125 34.9369 52.1372C37.0379 48.7937 40.7586 46.5706 45 46.5706C51.5597 46.5706 56.8767 51.8876 56.8767 58.4472Z" fill="#362A40"/>
<path d="M64.0289 58.4472C64.0289 68.9556 55.5102 77.4761 45.0001 77.4761C39.4568 77.4761 34.4665 75.1059 30.9901 71.3223C32.7175 69.4422 34.0733 67.2156 34.9371 64.7555C35.016 64.5293 35.0916 64.2993 35.1616 64.0696C42.0283 64.3264 49.2074 55.2906 56.2878 54.7411C58.888 54.538 61.4755 55.4808 64.0289 58.4472Z" fill="#6A78D7"/>
<path d="M59.7291 59.9728C58.8861 59.9728 58.2028 59.2894 58.2028 58.4465C58.2028 51.1666 52.2801 45.244 45.0001 45.244C44.1572 45.244 43.4738 44.5605 43.4738 43.7177C43.4738 42.8748 44.1572 42.1913 45.0001 42.1913C53.9633 42.1913 61.2555 49.4835 61.2555 58.4467C61.2555 59.2894 60.572 59.9728 59.7291 59.9728Z" fill="#E8ECFD"/>
<path d="M56.8767 58.4473C56.8767 65.0051 51.5597 70.3222 45 70.3222C40.7586 70.3222 37.038 68.0991 34.9369 64.7555C35.0158 64.5293 35.0914 64.2994 35.1614 64.0696C42.0281 64.3264 49.2072 55.2906 56.2877 54.7411C56.6702 55.9063 56.8767 57.1526 56.8767 58.4473Z" fill="#545EC0"/>
<path d="M18.8481 23.1056C22.0841 23.1056 24.7074 20.4823 24.7074 17.2462C24.7074 14.0102 22.0841 11.3869 18.8481 11.3869C15.612 11.3869 12.9887 14.0102 12.9887 17.2462C12.9887 20.4823 15.612 23.1056 18.8481 23.1056Z" fill="#D2D9F8"/>
<path d="M31.4213 23.1056C34.6573 23.1056 37.2806 20.4823 37.2806 17.2462C37.2806 14.0102 34.6573 11.3869 31.4213 11.3869C28.1853 11.3869 25.562 14.0102 25.562 17.2462C25.562 20.4823 28.1853 23.1056 31.4213 23.1056Z" fill="#D2D9F8"/>
<path d="M33.2763 22.8074C32.6927 22.9996 32.0696 23.1056 31.4213 23.1056C28.1855 23.1056 25.562 20.482 25.562 17.2462C25.562 14.0085 28.1855 11.3869 31.4213 11.3869C32.0696 11.3869 32.6927 11.4929 33.2763 11.6851C30.9491 12.4608 29.2701 14.657 29.2701 17.2462C29.2701 19.8337 30.9491 22.0317 33.2763 22.8074Z" fill="#C3CCEC"/>
<path d="M20.7031 22.8074C20.1195 22.9996 19.4963 23.1056 18.8481 23.1056C15.6123 23.1056 12.9887 20.482 12.9887 17.2462C12.9887 14.0085 15.6123 11.3869 18.8481 11.3869C19.4963 11.3869 20.1195 11.4929 20.7031 11.6851C18.3759 12.4608 16.6968 14.657 16.6968 17.2462C16.6968 19.8337 18.3757 22.0317 20.7031 22.8074Z" fill="#C3CCEC"/>
<path d="M72.263 16.342H73.5909C74.5925 16.342 75.4046 15.5301 75.4046 14.5283V13.2005C75.4046 12.1989 74.5927 11.3867 73.5909 11.3867H72.263C71.2614 11.3867 70.4493 12.1987 70.4493 13.2005V14.5283C70.4493 15.5301 71.2614 16.342 72.263 16.342Z" fill="#6A78D7"/>
<path d="M72.263 23.6067H73.5909C74.5925 23.6067 75.4046 22.7948 75.4046 21.793V20.4651C75.4046 19.4635 74.5927 18.6514 73.5909 18.6514H72.263C71.2614 18.6514 70.4493 19.4634 70.4493 20.4651V21.793C70.4493 22.7948 71.2614 23.6067 72.263 23.6067Z" fill="#6A78D7"/>
<path d="M65.0246 16.342H66.3525C67.3541 16.342 68.1662 15.5301 68.1662 14.5283V13.2005C68.1662 12.1989 67.3543 11.3867 66.3525 11.3867H65.0246C64.023 11.3867 63.2109 12.1987 63.2109 13.2005V14.5283C63.2109 15.5301 64.023 16.342 65.0246 16.342Z" fill="#6A78D7"/>
<path d="M65.0246 23.6067H66.3525C67.3541 23.6067 68.1662 22.7948 68.1662 21.793V20.4651C68.1662 19.4635 67.3543 18.6514 66.3525 18.6514H65.0246C64.023 18.6514 63.2109 19.4634 63.2109 20.4651V21.793C63.2109 22.7948 64.023 23.6067 65.0246 23.6067Z" fill="#6A78D7"/>
<path d="M57.7864 16.342H59.1143C60.1159 16.342 60.928 15.5301 60.928 14.5283V13.2005C60.928 12.1989 60.1161 11.3867 59.1143 11.3867H57.7864C56.7848 11.3867 55.9727 12.1987 55.9727 13.2005V14.5283C55.9727 15.5301 56.7848 16.342 57.7864 16.342Z" fill="#DC4356"/>
<path d="M57.7864 23.6067H59.1143C60.1159 23.6067 60.928 22.7948 60.928 21.793V20.4651C60.928 19.4635 60.1161 18.6514 59.1143 18.6514H57.7864C56.7848 18.6514 55.9727 19.4634 55.9727 20.4651V21.793C55.9727 22.7948 56.7848 23.6067 57.7864 23.6067Z" fill="#6A78D7"/>
<path d="M44.9301 66.6612H44.5346C43.395 66.6612 42.4713 65.7374 42.4713 64.5978V64.2023C42.4713 63.3507 41.8167 62.6178 40.9659 62.5778C40.0575 62.535 39.3076 63.2587 39.3076 64.1577V64.598C39.3076 65.7376 38.3839 66.6613 37.2443 66.6613H36.8488C35.9971 66.6613 35.2641 67.3159 35.2242 68.1667C35.1815 69.075 35.9052 69.8249 36.8041 69.8249H37.2445C38.3841 69.8249 39.3078 70.7486 39.3078 71.8882V72.2837C39.3078 73.1354 39.9624 73.8682 40.8132 73.9083C41.7216 73.951 42.4713 73.2273 42.4713 72.3283V71.888C42.4713 70.7484 43.395 69.8247 44.5346 69.8247H44.975C45.8739 69.8247 46.5978 69.0748 46.5549 68.1665C46.5146 67.3158 45.7818 66.6612 44.9301 66.6612Z" fill="#E8ECFD"/>
<path d="M50.8956 23.6067H42.5283C41.2816 23.6067 40.2711 22.5962 40.2711 21.3495V13.6441C40.2711 12.3975 41.2816 11.3869 42.5283 11.3869H50.8956C52.1423 11.3869 53.1528 12.3975 53.1528 13.6441V21.3495C53.1528 22.5962 52.1423 23.6067 50.8956 23.6067Z" fill="#77C378"/>
<path d="M49.6373 14.9026V20.0911H43.7868V14.9026H49.6373Z" fill="#5FA158"/>
</svg>
